PathFileType	4	(X/Y/Z)	path1_07_0-560.trc
DataRate	CameraRate	NumFrames	NumMarkers	Units	OrigDataRate	OrigDataStartFrame	OrigNumFrames
30	30	7	22	m	30	420	560
Frame#	Time	Hip			RHip			RKnee			RAnkle			RBigToe			RSmallToe			RHeel			LHip			LKnee			LAnkle			LBigToe			LSmallToe			LHeel			Neck			Head			Nose			RShoulder			RElbow			RWrist			LShoulder			LElbow			LWrist		
		X1	Y1	Z1	X2	Y2	Z2	X3	Y3	Z3	X4	Y4	Z4	X5	Y5	Z5	X6	Y6	Z6	X7	Y7	Z7	X8	Y8	Z8	X9	Y9	Z9	X10	Y10	Z10	X11	Y11	Z11	X12	Y12	Z12	X13	Y13	Z13	X14	Y14	Z14	X15	Y15	Z15	X16	Y16	Z16	X17	Y17	Z17	X18	Y18	Z18	X19	Y19	Z19	X20	Y20	Z20	X21	Y21	Z21	X22	Y22	Z22
421	14.033333333333331	0.5565278067778212	0.8317935647344902	0.9982110911575593	0.5440626171500409	0.810294947265222	0.8977515257976292	0.4451901604716087	0.47247929219358953	0.9195578966542385	0.42005940411323794	0.1048320431669179	0.9621759263164285	0.2472037883242281	0.03522977607789276	0.9634624733325006	0.2797205793828146	0.02621500137031997	0.9070581833477277	0.45767578183812535	0.03712725284159554	0.9643761591179012	0.565497110425087	0.7982970029753274	1.0874285426829837	0.5847739994580321	0.4511264378783062	1.0862235350424767	0.8668372275383613	0.22295534500121178	1.065975153862568	0.8197245389645615	0.0273097508082478	1.0880856468057087	0.8512061972553607	0.053743224049312366	1.1308759111900493	0.9387141981790786	0.22111626381353391	1.0513749194302922	0.5284656194541739	1.4347295029288696	1.0034659245589868	0.47283753911706805	1.6745139556030253	0.9986984428613157	0.3663244032765167	1.5571164322177	1.0172160497034068	0.5658703326963248	1.3296082218463379	0.8231365079012812	0.6181080460105572	1.0635814295548847	0.7922730147950484	0.6191775644200905	0.8205252505781824	0.7632539059022014	0.5466955814913546	1.3399092918561302	1.1861789264366887	0.5214047118116705	1.0694843276405566	1.2335581384063183	0.41068967724049027	0.857951749399501	1.2571118095886313
422	14.066666666666666	0.514997457915432	0.8368938604878193	0.9982579957478361	0.5062674687143417	0.8151242820065137	0.8975753392101121	0.42502094341577606	0.47384593609639997	0.9181809854879962	0.4196537264309617	0.10374662732743725	0.9631654387473051	0.24665201138345574	0.030753449418860282	0.9641312184027905	0.2802364599111966	0.021196821325344485	0.9074881774834559	0.4628688450171679	0.034613088382818326	0.9688379542065659	0.5211624761963127	0.8045965670143977	1.086429571019558	0.5096408025276216	0.4579942757159679	1.088863209701313	0.7915943721342715	0.24299872567340283	1.068444316973403	0.7583878044741721	0.03520028342693957	1.0891250396497993	0.7899960388544907	0.06739084630151836	1.133788084710125	0.8670224229381552	0.2432986315253001	1.0580250398248114	0.4918290174757962	1.439741741203431	0.9987839210594884	0.43642527550981625	1.6746301408931095	0.9912437167777867	0.3265198168472188	1.5618321596932772	1.0152536486278705	0.5251086841490602	1.3352653738293987	0.8196415983394699	0.5657630866716731	1.0641988242457154	0.7893320019387218	0.5594865505369421	0.8244598657203942	0.7568756487959791	0.5150127043791491	1.3431679352604668	1.184159228753686	0.4933216421135123	1.073061030874817	1.2299008656292694	0.39496864183228714	0.8573828175591022	1.2597390805591404
423	14.1	0.47446204800733227	0.8424549736755993	0.9988698858812531	0.47008297769576923	0.820068843408972	0.8979953088583696	0.40742809631501536	0.4756609312279362	0.9169839258386655	0.4214046068121627	0.10405559061653798	0.963573964750857	0.2447365953237612	0.02892412749730768	0.963656854160158	0.28133112476373756	0.018402035526107537	0.9072060828714755	0.46771659568771806	0.03329832647566494	0.9719238794440147	0.47829169383458764	0.8111423332033699	1.08673736782542	0.43494369544376543	0.4684240365771382	1.0932900215305021	0.7075873142865433	0.25258346825750005	1.0709445857717326	0.6704319748006776	0.042902152201552766	1.0907923494183305	0.7057091691733783	0.07894926224966053	1.1365330736000239	0.7854289939597296	0.25074002402989104	1.0633486219007269	0.4552213231318576	1.4449961409084264	0.9953971288824024	0.3990109598022443	1.6750855692688948	0.9855857725468943	0.2874643565567423	1.5661159130985762	1.0144847060354905	0.4846966797971796	1.3410412068207307	0.8171642721803697	0.5127118267278378	1.0661896877771797	0.7859080174248501	0.4962774656787233	0.8290202600354029	0.7512270304924861	0.4824011596140616	1.347792554447198	1.1826759352138287	0.4657355366475059	1.0778446918829305	1.2282992501532783	0.3807260580780008	0.8571418119902136	1.2632166802089375
424	14.133333333333333	0.435179679924799	0.8479909932625542	0.9996782507812476	0.4358117080680383	0.824909358152046	0.8984965745071345	0.3916715766819813	0.4774942779904147	0.9162329389414675	0.4237192059877318	0.10504550914934735	0.9637287465928062	0.24208455967019307	0.028748494229309317	0.9623124911522726	0.28251161937439706	0.017279044744119697	0.9066952488964914	0.4704870847984869	0.033186449231511324	0.974048950543851	0.4371901174334404	0.8175332958337496	1.0882593273696453	0.3622730736129431	0.48159052506776423	1.098440295104675	0.6167893905746598	0.24971625657788674	1.0742913675862305	0.5589807298939672	0.04788215142394321	1.0929284621260758	0.5994271005442865	0.08549757516512431	1.1388131981681897	0.6948515158852435	0.24162188733849044	1.0679601332668607	0.4182126311942255	1.4497990575509572	0.9932649091622634	0.3600955724019042	1.6769341271491371	0.9823341190429176	0.24953713934678223	1.5697838873281853	1.0147819929441164	0.4448123892883088	1.3461779607597084	0.8155415327722529	0.4594932770386498	1.0690636924652117	0.7821900372907254	0.42970183043351784	0.8337992702842646	0.7471993558535795	0.448383541755986	1.3533163951088778	1.1817554228158649	0.43880482038956137	1.083408932418252	1.2287515497833246	0.3668358436751416	0.856881946720121	1.267098767522275
425	14.166666666666666	0.39742541934442976	0.852922663980828	1.0004594593753824	0.40353333842277567	0.8296006810446195	0.8985008392647763	0.3769209666590095	0.4788633249441705	0.9159588757152715	0.42499511421867553	0.10590916668495665	0.9637795233946627	0.23982232303229348	0.029238699251189337	0.9604557653382407	0.2837098726719697	0.017230417636649707	0.9063263996697682	0.47079994275946696	0.03387900071683799	0.9753539133474498	0.39832053929414446	0.8234429777439833	1.090892198745202	0.2934733340014412	0.4955146470351686	1.1026788451164278	0.5202743417843498	0.2351809859372299	1.079332537543893	0.4308305227917608	0.048893875574970165	1.0957141171845908	0.4755595945975684	0.08536798899219991	1.1413959959893496	0.5957477409066945	0.21694218192602957	1.0734739959307866	0.38062744319631037	1.453583886668461	0.9921929519443218	0.31943475106625335	1.6810194421208935	0.981369566138469	0.21272036789851687	1.5725642985766854	1.0156830522182057	0.40547368764979974	1.3500842396506028	0.8144944057893151	0.4065887436931475	1.0722464500949178	0.7784323123178957	0.36025334197939385	0.83851916512776	0.7452713700737191	0.41287250460499736	1.3590411459414393	1.181561539745594	0.41282603396365114	1.089142085667585	1.230875583857584	0.35251998827849856	0.8565590337786269	1.2709645705177544
426	14.2	0.3613242126488197	0.856603012028014	1.0011298479471669	0.3729246437104079	0.8339305065677568	0.8977146322414501	0.3622649320172757	0.4795791566671551	0.9161204575613745	0.4243906423430553	0.10605468125540146	0.9637337577167862	0.2389269823815542	0.029626865089324866	0.9585161904302528	0.28511469296785785	0.017771870415487494	0.9063841633786559	0.4692810984480924	0.034912479305421906	0.9760114386682612	0.3618788246124631	0.828408331253058	1.0943121453760989	0.23068312621070441	0.5071224897849738	1.10527228129825	0.4188640107648576	0.2121939835280522	1.0863236445399156	0.29491201669999756	0.04731579624880091	1.0998592879865159	0.3414931374323011	0.07961432647400886	1.1453087283363108	0.48907336469128654	0.1810296535046114	1.08080236324171	0.34249754529836146	1.4559268150199103	0.9920762107614047	0.27686571026124235	1.6876637877530403	0.9822106760098659	0.1763438131790912	1.574069498683687	1.0167959783607223	0.36656952121019937	1.352358041790489	0.813847723720291	0.35450484531521104	1.0752710815456534	0.7749231385853314	0.2891074251139173	0.8431661782459752	0.7452084837130514	0.3761242010639043	1.3640525195897302	1.1823349962222693	0.38770230599618577	1.0944824408807186	1.2341187846081652	0.33720643275480355	0.856309042980389	1.274463355701821
427	14.233333333333333	0.3266987293258703	0.858492965914469	1.0016261333799656	0.3432362716170301	0.8372410298618318	0.8962329707197092	0.34707630281485236	0.47930213323999826	0.9168769220193691	0.4222141112359412	0.10538366761415184	0.9636051043131612	0.24015885034665754	0.029276486666708162	0.9571228798128897	0.28696196605101193	0.01849495888919589	0.907136975634095	0.4669043701132952	0.036143712297744095	0.9767869133300091	0.3273864647012013	0.8317453598533466	1.0978341411567272	0.1755334691022467	0.5132409866859826	1.1068001257275064	0.31366567204780316	0.18535687664939215	1.0943836441530221	0.16012318075268872	0.04660456753214605	1.1055684651565607	0.20570702806488952	0.07259077592351712	1.1507879535105436	0.37657089252976295	0.14082847607848883	1.0890201226397052	0.3039708818654405	1.4565776180073862	0.9928544228982253	0.23268753619141902	1.6961556305212777	0.9843240541047313	0.13967359155512954	1.5740481389938548	1.0179543647892264	0.32793978965411813	1.3528373334265626	0.8136064279520835	0.3037059634868106	1.077748071603619	0.7719745583608215	0.21809712213860413	0.8479620975942753	0.7462351804234563	0.33868290094795733	1.367211015958195	1.1841253181077855	0.36287765099386354	1.0988357972165939	1.237893173008358	0.32051037633981244	0.8562313910081149	1.27741710078269
